<?xml version="1.0" encoding="iso-8859-1"?>
<!-- Uploaded to: SVG Repo, www.svgrepo.com, Generator: SVG Repo Mixer Tools -->
<svg fill="#000000" height="800px" width="800px" version="1.1" id="Layer_1" xmlns="http://www.w3.org/2000/svg" xmlns:xlink="http://www.w3.org/1999/xlink" 
	 viewBox="0 0 512 512" xml:space="preserve">
<g>
	<g>
		<path d="M0,69.486v373.029h512V69.486H0z M481.002,411.167L481.002,411.167H30.999V100.833h450.003V411.167z"/>
	</g>
</g>
<g>
	<g>
		<polygon points="271.673,319.313 271.673,140.768 240.327,140.768 240.327,319.313 218.708,319.313 218.708,350.659 
			240.327,350.659 240.327,379.096 271.673,379.096 271.673,350.659 293.292,350.659 293.292,319.313 		"/>
	</g>
</g>
<g>
	<g>
		<polygon points="129.304,223.273 129.304,140.768 97.957,140.768 97.957,223.273 76.338,223.273 76.338,254.62 97.957,254.62 
			97.957,379.096 129.304,379.096 129.304,254.62 150.923,254.62 150.923,223.273 		"/>
	</g>
</g>
<g>
	<g>
		<polygon points="414.302,173.121 414.302,140.768 382.955,140.768 382.955,173.121 361.336,173.121 361.336,204.468 
			382.955,204.468 382.955,379.096 414.302,379.096 414.302,204.468 435.921,204.468 435.921,173.121 		"/>
	</g>
</g>
</svg>